{
  "accessors": [
    {
      "bufferView": 0,
      "componentType": 5123,
      "count": 36,
      "name": "accessorIndices",
      "type": "SCALAR"
    },
    {
      "bufferView": 1,
      "componentType": 5126,
      "count": 36,
      "max": [
        0.927820146,
        0.727871,
        0.422381
      ],
      "min": [
        -0.927820146,
        0.005566,
        -0.422381
      ],
      "name": "accessorPositions",
      "type": "VEC3"
    },
    {
      "bufferView": 1,
      "byteOffset": 432,
      "componentType": 5126,
      "count": 36,
      "name": "accessorNormals",
      "type": "VEC3"
    },
    {
      "bufferView": 2,
      "componentType": 5126,
      "count": 36,
      "name": "accessorTangents",
      "type": "VEC4"
    },
    {
      "bufferView": 3,
      "componentType": 5126,
      "count": 36,
      "name": "accessorUVs",
      "type": "VEC2"
    },
    {
      "bufferView": 0,
      "byteOffset": 72,
      "componentType": 5123,
      "count": 36,
      "name": "accessorIndices",
      "type": "SCALAR"
    },
    {
      "bufferView": 1,
      "byteOffset": 864,
      "componentType": 5126,
      "count": 24,
      "max": [
        0.5,
        0.5,
        0.5000001
      ],
      "min": [
        -0.5,
        -0.5,
        -0.5
      ],
      "name": "accessorPositions",
      "type": "VEC3"
    },
    {
      "bufferView": 1,
      "byteOffset": 1152,
      "componentType": 5126,
      "count": 24,
      "name": "accessorNormals",
      "type": "VEC3"
    },
    {
      "bufferView": 2,
      "byteOffset": 576,
      "componentType": 5126,
      "count": 24,
      "name": "accessorTangents",
      "type": "VEC4"
    },
    {
      "bufferView": 3,
      "byteOffset": 288,
      "componentType": 5126,
      "count": 24,
      "name": "accessorUVs",
      "type": "VEC2"
    }
  ],
  "asset": {
    "generator": "babylon.js glTF exporter for maya 2018 v1.3.1",
    "version": "2.0"
  },
  "bufferViews": [
    {
      "buffer": 0,
      "byteLength": 144,
      "name": "bufferViewScalar"
    },
    {
      "buffer": 0,
      "byteLength": 1440,
      "byteOffset": 144,
      "byteStride": 12,
      "name": "bufferViewFloatVec3"
    },
    {
      "buffer": 0,
      "byteLength": 960,
      "byteOffset": 1584,
      "byteStride": 16,
      "name": "bufferViewFloatVec4"
    },
    {
      "buffer": 0,
      "byteLength": 480,
      "byteOffset": 2544,
      "byteStride": 8,
      "name": "bufferViewFloatVec2"
    },
    {
      "buffer": 0,
      "byteLength": 1,
      "byteOffset": 0,
      "name": "bufferViewImage"
    },
    {
      "buffer": 0,
      "byteLength": 1,
      "byteOffset": 0,
      "name": "bufferViewImage"
    }
  ],
  "buffers": [
    {
      "byteLength": 3024,
      "uri": "boat.bin"
    }
  ],
  "images": [
    {
      "uri": "image0.jpg"
    },
    {
      "uri": "image1.jpg"
    }
  ],
  "materials": [
    {
      "alphaMode": "OPAQUE",
      "emissiveFactor": [
        0.0,
        0.0,
        0.0
      ],
      "name": "phongE1",
      "pbrMetallicRoughness": {
        "baseColorFactor": [
          1.0,
          1.0,
          1.0,
          1.0
        ],
        "baseColorTexture": {
          "index": 0,
          "texCoord": 0
        },
        "metallicFactor": 0.0,
        "roughnessFactor": 0.240331292
      }
    },
    {
      "alphaMode": "OPAQUE",
      "emissiveFactor": [
        0.0,
        0.0,
        0.0
      ],
      "name": "phongE2",
      "pbrMetallicRoughness": {
        "baseColorFactor": [
          1.0,
          1.0,
          1.0,
          1.0
        ],
        "baseColorTexture": {
          "index": 1,
          "texCoord": 0
        },
        "metallicFactor": 0.0,
        "roughnessFactor": 0.240331292
      }
    }
  ],
  "meshes": [
    {
      "name": "ship:Mesh",
      "primitives": [
        {
          "attributes": {
            "POSITION": 1,
            "NORMAL": 2,
            "TANGENT": 3,
            "TEXCOORD_0": 4
          },
          "indices": 0,
          "material": 0,
          "mode": 4
        }
      ]
    },
    {
      "name": "pCube1",
      "primitives": [
        {
          "attributes": {
            "POSITION": 6,
            "NORMAL": 7,
            "TANGENT": 8,
            "TEXCOORD_0": 9
          },
          "indices": 5,
          "material": 1,
          "mode": 4
        }
      ]
    }
  ],
  "nodes": [
    {
      "mesh": 0,
      "name": "ship:Mesh",
      "rotation": [
        0.0,
        0.0,
        0.0,
        1.0
      ],
      "scale": [
        1.0,
        1.0,
        1.0
      ],
      "translation": [
        0.0,
        0.0,
        0.0
      ]
    },
    {
      "mesh": 1,
      "name": "pCube1",
      "rotation": [
        0.0,
        -0.382611722,
        0.0,
        0.923909247
      ],
      "scale": [
        0.00470134,
        0.132502511,
        0.00470134
      ],
      "translation": [
        -6.275112E-5,
        0.782352,
        2.09495629E-5
      ]
    }
  ],
  "samplers": [
    {
      "magFilter": 9729,
      "minFilter": 9987,
      "wrapS": 10497,
      "wrapT": 10497
    },
    {
      "magFilter": 9729,
      "minFilter": 9987,
      "wrapS": 10497,
      "wrapT": 10497
    }
  ],
  "scene": 0,
  "scenes": [
    {
      "extensions": {},
      "nodes": [
        0,
        1
      ]
    }
  ],
  "textures": [
    {
      "name": "phongE1_baseColor.jpg",
      "sampler": 0,
      "source": 0
    },
    {
      "name": "phongE2_baseColor.jpg",
      "sampler": 1,
      "source": 1
    }
  ]
}